<svg width="12" height="8" viewBox="0 0 12 8" fill="none" xmlns="http://www.w3.org/2000/svg">
<path d="M6.00254 2.84395L1.51317 7.33312C1.38985 7.45673 1.22498 7.52473 1.04917 7.52473C0.873268 7.52473 0.708488 7.45673 0.584976 7.33312L0.191805 6.93976C0.0680976 6.81634 0 6.65137 0 6.47556C0 6.29976 0.0680976 6.13498 0.191805 6.01147L5.53678 0.666393C5.66068 0.542393 5.82624 0.47449 6.00224 0.474978C6.17902 0.47449 6.34439 0.542295 6.46839 0.666393L11.8082 6.00649C11.9319 6.13 12 6.29478 12 6.47069C12 6.64649 11.9319 6.81127 11.8082 6.93488L11.415 7.32815C11.1591 7.58405 10.7425 7.58405 10.4867 7.32815L6.00254 2.84395Z" fill="#FE616B"/>
</svg>
