<svg width="12" height="12" viewBox="0 0 12 12" fill="none" xmlns="http://www.w3.org/2000/svg">
<path d="M7.15592 6.00254L2.66675 1.51317C2.54314 1.38985 2.47514 1.22498 2.47514 1.04917C2.47514 0.873268 2.54314 0.708488 2.66675 0.584976L3.06012 0.191805C3.18353 0.0680976 3.34851 0 3.52431 0C3.70012 0 3.8649 0.0680976 3.98841 0.191805L9.33349 5.53678C9.45749 5.66068 9.52539 5.82624 9.5249 6.00224C9.52539 6.17902 9.45758 6.34439 9.33349 6.46839L3.99339 11.8082C3.86988 11.9319 3.7051 12 3.52919 12C3.35339 12 3.18861 11.9319 3.065 11.8082L2.67173 11.415C2.41583 11.1591 2.41583 10.7425 2.67173 10.4867L7.15592 6.00254Z" fill="#650107" fill-opacity="0.6"/>
</svg>
