<svg width="20" height="20" viewBox="0 0 20 20" fill="none" xmlns="http://www.w3.org/2000/svg">
<circle cx="10" cy="10" r="9" fill="#FFEF61" stroke="white" stroke-width="2"/>
<path d="M14.6065 8.75101C14.6081 8.77853 14.6061 8.80653 14.5991 8.83434L13.9823 11.3016C13.9512 11.4259 13.8398 11.5133 13.7117 11.514L10.0108 11.5327C10.0103 11.5327 10.0099 11.5327 10.0094 11.5327H6.30841C6.17966 11.5327 6.06748 11.445 6.03637 11.3201L5.41955 8.84342C5.41245 8.81486 5.41039 8.78608 5.41219 8.75785C5.17357 8.68268 5 8.45939 5 8.19625C5 7.87157 5.26411 7.60746 5.58879 7.60746C5.91346 7.60746 6.17757 7.87157 6.17757 8.19625C6.17757 8.37909 6.09379 8.54268 5.96262 8.65075L6.73488 9.42884C6.93006 9.62552 7.2009 9.73826 7.47798 9.73826C7.80561 9.73826 8.11798 9.58268 8.31469 9.322L9.58385 7.64036C9.47723 7.53382 9.41121 7.3866 9.41121 7.22428C9.41121 6.89961 9.67533 6.6355 10 6.6355C10.3247 6.6355 10.5888 6.89961 10.5888 7.22428C10.5888 7.38174 10.5263 7.52466 10.4252 7.63041C10.4256 7.63086 10.426 7.63124 10.4263 7.63172L11.6863 9.318C11.8829 9.58118 12.1964 9.7383 12.525 9.7383C12.8046 9.7383 13.0676 9.6294 13.2653 9.43165L14.0424 8.65453C13.9084 8.54649 13.8224 8.38133 13.8224 8.19625C13.8224 7.87157 14.0865 7.60746 14.4112 7.60746C14.7359 7.60746 15 7.87157 15 8.19625C15 8.45236 14.8353 8.67019 14.6065 8.75101ZM13.9221 12.4112C13.9221 12.2564 13.7966 12.1308 13.6418 12.1308H6.38942C6.23458 12.1308 6.10905 12.2564 6.10905 12.4112V13.0841C6.10905 13.2389 6.23458 13.3645 6.38942 13.3645H13.6418C13.7966 13.3645 13.9221 13.2389 13.9221 13.0841V12.4112Z" fill="#FE616B"/>
</svg>
