<svg width="56" height="56" viewBox="0 0 56 56" fill="none" xmlns="http://www.w3.org/2000/svg">
<circle cx="28" cy="28" r="25" fill="white" stroke="#FAFAFA" stroke-width="6"/>
<g filter="url(#filter0_d_130_546)">
<path fill-rule="evenodd" clip-rule="evenodd" d="M23.17 20L25 18H31L32.83 20H36C37.1 20 38 20.9 38 22V34C38 35.1 37.1 36 36 36H20C18.9 36 18 35.1 18 34V22C18 20.9 18.9 20 20 20H23.17ZM23 28C23 30.76 25.24 33 28 33C30.76 33 33 30.76 33 28C33 25.24 30.76 23 28 23C25.24 23 23 25.24 23 28ZM31.1998 28C31.1998 29.7673 29.7671 31.2 27.9998 31.2C26.2325 31.2 24.7998 29.7673 24.7998 28C24.7998 26.2327 26.2325 24.8 27.9998 24.8C29.7671 24.8 31.1998 26.2327 31.1998 28Z" fill="url(#paint0_linear_130_546)"/>
</g>
<defs>
<filter id="filter0_d_130_546" x="4" y="8" width="48" height="48" filterUnits="userSpaceOnUse" color-interpolation-filters="sRGB">
<feFlood flood-opacity="0" result="BackgroundImageFix"/>
<feColorMatrix in="SourceAlpha" type="matrix" values="0 0 0 0 0 0 0 0 0 0 0 0 0 0 0 0 0 0 127 0" result="hardAlpha"/>
<feOffset dy="4"/>
<feGaussianBlur stdDeviation="6"/>
<feColorMatrix type="matrix" values="0 0 0 0 0.996078 0 0 0 0 0.380392 0 0 0 0 0.419608 0 0 0 0.24 0"/>
<feBlend mode="normal" in2="BackgroundImageFix" result="effect1_dropShadow_130_546"/>
<feBlend mode="normal" in="SourceGraphic" in2="effect1_dropShadow_130_546" result="shape"/>
</filter>
<linearGradient id="paint0_linear_130_546" x1="28" y1="18" x2="28" y2="36" gradientUnits="userSpaceOnUse">
<stop stop-color="#FE858D"/>
<stop offset="1" stop-color="#FE616B"/>
</linearGradient>
</defs>
</svg>
