<svg width="20" height="20" viewBox="0 0 20 20" fill="none" xmlns="http://www.w3.org/2000/svg">
<g clip-path="url(#clip0_130_607)">
<path d="M19.8901 9.65882C19.7116 9.40921 15.4557 3.55444 10.0393 3.55444C4.6224 3.55444 0.288379 9.40921 0.109863 9.65882C-0.0366211 9.86273 -0.0366211 10.1373 0.109863 10.3409C0.288379 10.5905 4.6224 16.4452 10.0393 16.4452C15.4557 16.4452 19.7116 10.5905 19.8901 10.3408C20.0366 10.1373 20.0366 9.86269 19.8901 9.65882ZM10.0393 14.1014C7.77791 14.1014 5.85955 12.2612 5.85955 9.9998C5.85955 7.73843 7.77791 5.89819 10.0393 5.89819C12.3006 5.89819 14.1409 7.73843 14.1409 9.9998C14.1409 12.2612 12.3006 14.1014 10.0393 14.1014Z" fill="#FE616B"/>
<path d="M10.0391 8.24194C9.06953 8.24194 8.20312 9.03062 8.20312 9.99976C8.20312 10.9693 9.06953 11.7576 10.0391 11.7576C11.0082 11.7576 11.7969 10.9693 11.7969 9.99976C11.7969 9.03062 11.0082 8.24194 10.0391 8.24194Z" fill="#FE616B"/>
</g>
<defs>
<clipPath id="clip0_130_607">
<rect width="20" height="20" fill="white"/>
</clipPath>
</defs>
</svg>
