<svg width="20" height="16" viewBox="0 0 20 16" fill="none" xmlns="http://www.w3.org/2000/svg">
<path d="M3.05944 0.360352C3.0589 0.360352 3.0583 0.360352 3.05776 0.360352C2.8686 0.360352 2.69069 0.434089 2.55634 0.568096C2.42052 0.703585 2.3457 0.883989 2.3457 1.07604V11.8077C2.3457 12.2013 2.66712 12.5222 3.06227 12.5232C4.72814 12.5272 7.51913 12.8744 9.44452 14.8893V3.65827C9.44452 3.52487 9.41045 3.39955 9.34614 3.29585C7.76586 0.750925 4.72908 0.364257 3.05944 0.360352Z" fill="#650107"/>
<path d="M17.6544 11.8078V1.07604C17.6544 0.88399 17.5796 0.703585 17.4438 0.568096C17.3094 0.434089 17.1314 0.360352 16.9424 0.360352C16.9418 0.360352 16.9412 0.360352 16.9407 0.360352C15.2711 0.364325 12.2343 0.750993 10.654 3.29592C10.5897 3.39962 10.5557 3.52494 10.5557 3.65834V14.8893C12.4811 12.8744 15.272 12.5272 16.9379 12.5232C17.333 12.5222 17.6544 12.2013 17.6544 11.8078Z" fill="#650107"/>
<path d="M19.2846 2.83496H18.7657V11.8074C18.7657 12.8122 17.9471 13.6316 16.9407 13.6341C15.5277 13.6374 13.1979 13.9137 11.5479 15.4754C14.4016 14.7767 17.41 15.2309 19.1244 15.6216C19.3385 15.6704 19.5597 15.62 19.7312 15.4833C19.9022 15.3469 20.0002 15.1431 20.0002 14.9243V3.55052C20.0003 3.15597 19.6792 2.83496 19.2846 2.83496Z" fill="#650107"/>
<path d="M1.23448 11.8074V2.83496H0.715558C0.321079 2.83496 0 3.15597 0 3.55052V14.9241C0 15.143 0.0980475 15.3467 0.268957 15.4831C0.440338 15.6197 0.661349 15.6703 0.87576 15.6214C2.59024 15.2306 5.59867 14.7765 8.45228 15.4752C6.80231 13.9136 4.47247 13.6374 3.05947 13.634C2.05321 13.6316 1.23448 12.8122 1.23448 11.8074Z" fill="#650107"/>
</svg>
