<svg width="20" height="20" viewBox="0 0 20 20" fill="none" xmlns="http://www.w3.org/2000/svg">
<path d="M7.70828 0H1.45828C0.654144 0 0 0.654144 0 1.45828V5.20828C0 6.01257 0.654144 6.66672 1.45828 6.66672H7.70828C8.51257 6.66672 9.16672 6.01257 9.16672 5.20828V1.45828C9.16672 0.654144 8.51257 0 7.70828 0Z" fill="#650107"/>
<path d="M7.70828 8.33301H1.45828C0.654144 8.33301 0 8.98715 0 9.79144V18.5414C0 19.3456 0.654144 19.9997 1.45828 19.9997H7.70828C8.51257 19.9997 9.16672 19.3456 9.16672 18.5414V9.79144C9.16672 8.98715 8.51257 8.33301 7.70828 8.33301Z" fill="#650107"/>
<path d="M18.5419 13.333H12.2919C11.4876 13.333 10.8335 13.9872 10.8335 14.7914V18.5414C10.8335 19.3456 11.4876 19.9997 12.2919 19.9997H18.5419C19.3461 19.9997 20.0002 19.3456 20.0002 18.5414V14.7914C20.0002 13.9872 19.3461 13.333 18.5419 13.333Z" fill="#650107"/>
<path d="M18.5419 0H12.2919C11.4876 0 10.8335 0.654144 10.8335 1.45828V10.2083C10.8335 11.0126 11.4876 11.6667 12.2919 11.6667H18.5419C19.3461 11.6667 20.0002 11.0126 20.0002 10.2083V1.45828C20.0002 0.654144 19.3461 0 18.5419 0V0Z" fill="#650107"/>
</svg>
