<svg width="20" height="20" viewBox="0 0 20 20" fill="none" xmlns="http://www.w3.org/2000/svg">
<g clip-path="url(#clip0_4192_26)">
<path d="M18.1822 10.9092C17.6795 10.9092 17.2731 11.3165 17.2731 11.8183C17.2731 13.322 16.0494 14.5456 14.5458 14.5456H7.27292V11.8183C7.27292 11.4692 7.07202 11.1501 6.75838 10.9992C6.44111 10.8483 6.06927 10.8901 5.79563 11.1083L1.25008 14.7447C1.03461 14.9175 0.90918 15.1784 0.90918 15.4547C0.90918 15.7311 1.03465 15.992 1.25008 16.1647L5.79563 19.8012C5.96017 19.9321 6.16111 20.0003 6.36381 20.0003C6.49744 20.0003 6.63291 19.9703 6.75834 19.9103C7.07198 19.7594 7.27288 19.4403 7.27288 19.0912V16.3638H14.5457C17.0522 16.3638 19.0913 14.3247 19.0913 11.8183C19.0913 11.3165 18.685 10.9092 18.1822 10.9092Z" fill="#650107"/>
<path d="M1.8183 9.09071C2.32104 9.09071 2.72741 8.68344 2.72741 8.1816C2.72741 6.67794 3.95107 5.45428 5.45473 5.45428H12.7276V8.1816C12.7276 8.5307 12.9285 8.84977 13.2421 9.00071C13.3685 9.06071 13.503 9.09071 13.6367 9.09071C13.8394 9.09071 14.0403 9.02255 14.2048 8.89161L18.7504 5.25518C18.9659 5.08244 19.0913 4.82154 19.0913 4.54517C19.0913 4.26879 18.9658 4.00789 18.7504 3.83515L14.2049 0.198722C13.9321 -0.0194454 13.5558 -0.0612821 13.2421 0.089619C12.9285 0.24052 12.7276 0.559627 12.7276 0.908735V3.63605H5.45473C2.94832 3.63605 0.90918 5.67519 0.90918 8.1816C0.90918 8.68344 1.31555 9.09071 1.8183 9.09071Z" fill="#650107"/>
</g>
<defs>
<clipPath id="clip0_4192_26">
<rect width="20" height="20" fill="white"/>
</clipPath>
</defs>
</svg>
