<svg width="20" height="20" viewBox="0 0 20 20" fill="none" xmlns="http://www.w3.org/2000/svg">
<path d="M18.9415 7.82837L17.3749 7.62924C17.2458 7.2316 17.0865 6.8483 16.9008 6.48422L17.8682 5.23834C18.2599 4.73419 18.2141 4.02252 17.7666 3.58917L16.454 2.27661C16.0166 1.82495 15.3049 1.77994 14.8 2.17087L13.5558 3.13828C13.1915 2.95258 12.8082 2.79327 12.4098 2.66418L12.2107 1.10001C12.1358 0.472565 11.6033 0 10.9725 0H9.10569C8.47489 0 7.94236 0.472565 7.86744 1.09756L7.66831 2.66418C7.26991 2.79327 6.88661 2.95166 6.52238 3.13828L5.27741 2.17087C4.77402 1.77994 4.06235 1.82495 3.62824 2.27249L2.31568 3.58414C1.86402 4.02252 1.81824 4.73419 2.20993 5.23911L3.17734 6.48422C2.99073 6.8483 2.83234 7.2316 2.70325 7.62924L1.13907 7.82837C0.511628 7.90329 0.0390625 8.43582 0.0390625 9.06662V10.9334C0.0390625 11.5642 0.511628 12.0967 1.13663 12.1716L2.70325 12.3708C2.83234 12.7684 2.99164 13.1517 3.17734 13.5158L2.20993 14.7617C1.81824 15.2658 1.86402 15.9775 2.31156 16.4108L3.62412 17.7234C4.06235 18.1741 4.77326 18.2191 5.27817 17.8284L6.52329 16.8608C6.88737 17.0474 7.27067 17.2067 7.66831 17.3351L7.86744 18.8983C7.94236 19.5274 8.47489 20 9.10569 20H10.9725C11.6033 20 12.1358 19.5274 12.2107 18.9024L12.4098 17.3358C12.8075 17.2067 13.1908 17.0474 13.5549 16.8617L14.8007 17.8291C15.3049 18.2208 16.0166 18.175 16.4499 17.7275L17.7625 16.4149C18.2141 15.9767 18.2599 15.2658 17.8682 14.7609L16.9008 13.5158C17.0874 13.1517 17.2466 12.7684 17.3749 12.3708L18.9383 12.1716C19.5658 12.0967 20.0383 11.5642 20.0383 10.9334V9.06662C20.0391 8.43582 19.5665 7.90329 18.9415 7.82837ZM10.0391 14.1667C7.74156 14.1667 5.87235 12.2975 5.87235 10C5.87235 7.70248 7.74156 5.83328 10.0391 5.83328C12.3366 5.83328 14.2058 7.70248 14.2058 10C14.2058 12.2975 12.3366 14.1667 10.0391 14.1667Z" fill="#650107"/>
</svg>
