<svg width="20" height="20" viewBox="0 0 20 20" fill="none" xmlns="http://www.w3.org/2000/svg">
<g clip-path="url(#clip0_4192_12)">
<path d="M9.85773 9.63409C11.1813 9.63409 12.3274 9.15939 13.2638 8.22281C14.2002 7.28638 14.6749 6.14059 14.6749 4.81689C14.6749 3.49365 14.2002 2.34772 13.2636 1.41098C12.3271 0.474701 11.1811 0 9.85773 0C8.53403 0 7.38824 0.474701 6.45181 1.41113C5.51538 2.34756 5.04053 3.4935 5.04053 4.81689C5.04053 6.14059 5.51538 7.28653 6.45197 8.22296C7.38855 9.15924 8.53448 9.63409 9.85773 9.63409Z" fill="#650107"/>
<path d="M18.2863 15.3794C18.2593 14.9897 18.2046 14.5645 18.1242 14.1156C18.0431 13.6634 17.9385 13.2358 17.8134 12.845C17.6842 12.4411 17.5084 12.0423 17.2911 11.66C17.0656 11.2633 16.8007 10.9178 16.5034 10.6336C16.1926 10.3362 15.8121 10.0971 15.372 9.92267C14.9335 9.74918 14.4475 9.66129 13.9276 9.66129C13.7234 9.66129 13.526 9.74506 13.1447 9.99332C12.91 10.1464 12.6355 10.3234 12.3291 10.5191C12.0671 10.6861 11.7122 10.8425 11.2738 10.9841C10.8461 11.1225 10.4118 11.1927 9.98321 11.1927C9.55459 11.1927 9.12048 11.1225 8.69232 10.9841C8.25439 10.8426 7.89947 10.6862 7.63779 10.5193C7.33429 10.3253 7.05963 10.1483 6.82144 9.99316C6.44058 9.7449 6.24298 9.66113 6.03882 9.66113C5.5188 9.66113 5.03296 9.74918 4.59457 9.92282C4.15482 10.0969 3.77411 10.336 3.46298 10.6337C3.16589 10.9182 2.90085 11.2635 2.67563 11.66C2.4585 12.0423 2.28271 12.441 2.15332 12.8452C2.02835 13.236 1.92383 13.6634 1.84265 14.1156C1.76224 14.5639 1.70761 14.9892 1.6806 15.3798C1.65405 15.7625 1.64062 16.1597 1.64062 16.5609C1.64062 17.6049 1.9725 18.45 2.62695 19.0734C3.27332 19.6884 4.12857 20.0005 5.16861 20.0005H14.7987C15.8388 20.0005 16.6937 19.6886 17.3402 19.0734C17.9948 18.4505 18.3267 17.6052 18.3267 16.5607C18.3266 16.1577 18.313 15.7602 18.2863 15.3794Z" fill="#650107"/>
</g>
<defs>
<clipPath id="clip0_4192_12">
<rect width="20" height="20.0001" fill="white"/>
</clipPath>
</defs>
</svg>
