<svg width="20" height="20" viewBox="0 0 20 20" fill="none" xmlns="http://www.w3.org/2000/svg">
<path d="M19.375 0.000976562H0.625C0.28 0.000976562 0 0.280976 0 0.625976V9.37596C0 9.72096 0.28 10.001 0.625 10.001H2.9225C3.42 9.12971 3.75375 8.28721 3.95875 7.50097H3.75C3.06 7.50097 2.5 6.94097 2.5 6.25097V3.75097C2.5 3.06097 3.06 2.50097 3.75 2.50097H16.25C16.94 2.50097 17.5 3.06097 17.5 3.75097V6.25097C17.5 6.82597 17.1038 7.28847 16.5763 7.43472C16.43 8.24597 16.1888 9.10721 15.8325 10.001H19.375C19.72 10.001 20 9.72096 20 9.37596V0.625976C20 0.280976 19.72 0.000976562 19.375 0.000976562Z" fill="#650107"/>
<path d="M15.4436 3.75098H5.43361C5.65486 5.37598 5.60111 8.03848 3.84236 10.9247C0.638612 16.1797 2.50361 19.5447 2.58361 19.686C2.69486 19.8797 2.90236 19.9997 3.12611 19.9997H11.8761C12.0974 19.9997 12.3011 19.8797 12.4136 19.6897C12.5261 19.4997 12.5286 19.261 12.4211 19.0672C12.3561 18.951 10.8686 16.1572 13.6599 11.576C15.5611 8.45723 15.6724 5.59848 15.4436 3.75098ZM7.49986 5.62598C7.49986 5.28098 7.77986 5.00098 8.12486 5.00098C8.46986 5.00098 8.74986 5.28098 8.74986 5.62598V6.87598C8.74986 7.22098 8.46986 7.50098 8.12486 7.50098C7.77986 7.50098 7.49986 7.22098 7.49986 6.87598V5.62598ZM9.99986 16.876C9.99986 17.221 9.71986 17.501 9.37486 17.501C9.02986 17.501 8.74986 17.221 8.74986 16.876V15.626C8.74986 15.281 9.02986 15.001 9.37486 15.001C9.71986 15.001 9.99986 15.281 9.99986 15.626V16.876ZM8.74986 13.4385C7.71611 13.4385 6.87486 12.4572 6.87486 11.251C6.87486 10.0447 7.71611 9.06348 8.74986 9.06348C9.78361 9.06348 10.6249 10.0447 10.6249 11.251C10.6249 12.4572 9.78361 13.4385 8.74986 13.4385Z" fill="#650107"/>
</svg>
